<svg xmlns="http://www.w3.org/2000/svg" xml:space="preserve" width="75.1683mm" height="19.4326mm" version="1.0" style="shape-rendering:geometricPrecision; text-rendering:geometricPrecision; image-rendering:optimizeQuality; fill-rule:evenodd; clip-rule:evenodd"
viewBox="0 0 7499.04 1938.66"
 xmlns:xlink="http://www.w3.org/1999/xlink"
 xmlns:xodm="http://www.corel.com/coreldraw/odm/2003">
 <defs>
  <style type="text/css">
   <![CDATA[
    .str0 {stroke:#8D968F;stroke-width:99.76;stroke-miterlimit:11.4737}
    .str1 {stroke:#B1C0B2;stroke-width:49.88;stroke-miterlimit:11.4737}
    .fil1 {fill:none}
    .fil0 {fill:none;fill-rule:nonzero}
   ]]>
  </style>
 </defs>
 <g id="Layer_x0020_1">
  <metadata id="CorelCorpID_0Corel-Layer"/>
  <path class="fil0 str0" d="M1637.15 1239.67c-6.08,119.3 -40.75,224.53 -104.47,316.11 -63.29,91.17 -152.6,161.87 -267.04,212.08 -114.88,50.2 -245.79,75.51 -393.18,75.51 -243.19,0 -434.36,-73.51 -573.95,-220.12 -140.02,-146.6 -209.8,-353.86 -209.8,-621.37l0 -84.75c0,-167.89 31.64,-314.9 94.92,-440.62 62.86,-126.12 153.89,-223.32 272.23,-292.01 118.34,-68.68 255.76,-102.83 411.39,-102.83 224.54,0 404.88,54.63 541,164.28 136.55,109.25 213.71,260.28 232.35,452.28l-444.34 0c-3.46,-104.43 -31.63,-179.54 -84.96,-225.34 -53.31,-45.39 -134.81,-68.28 -244.05,-68.28 -110.98,0 -192.04,38.56 -243.63,115.28 -51.58,77.12 -78.9,200.03 -81.5,369.12l0 121.3c0,182.76 24.71,313.7 74.56,392.42 49.42,78.32 134.82,117.69 255.76,117.69 102.31,0 180.76,-22.5 234.95,-67.08 54.18,-44.98 82.8,-116.08 86.27,-213.68l443.47 0z"/>
  <path id="_1" class="fil0 str0" d="M2534.91 1214.36l-241.02 0 0 604.91 -446.07 0 0 -1713.49 727.84 0c219.35,0 390.57,44.98 514.56,135.36 123.54,90.38 185.09,217.7 185.09,382.38 0,119.3 -26,218.1 -78.02,296.83 -52.02,78.32 -133.51,141.78 -244.49,190.39l386.24 690.86 0 17.67 -477.71 0 -326.43 -604.91zm-241.02 -318.12l281.77 0c84.53,0 148.25,-20.48 191.17,-61.85 42.92,-41.37 64.17,-99.2 64.17,-173.11 0,-73.91 -21.68,-132.15 -65.04,-174.33 -42.91,-42.17 -106.64,-63.06 -190.3,-63.06l-281.77 0 0 472.35z"/>
  <polygon id="_2" class="fil0 str0" points="4020.06,1819.26 3575.74,1819.26 3575.74,105.78 4020.06,105.78 "/>
  <path id="_3" class="fil0 str0" d="M5284.13 1364.18c0,-60.66 -23.4,-107.64 -69.35,-141.38 -46.39,-33.74 -127.46,-68.69 -243.2,-104.83 -116.17,-36.15 -210.67,-71.1 -284.38,-104.84 -239.71,-109.25 -359.36,-259.07 -359.36,-449.85 0,-94.8 29.48,-178.74 89.3,-251.44 59.83,-72.7 144.36,-128.93 253.6,-169.5 108.8,-40.56 231.91,-60.66 368.03,-60.66 133.09,0 252.3,22.1 357.64,65.87 105.34,43.79 187.27,106.45 245.79,187.58 58.52,81.14 87.56,173.93 87.56,277.95l-444.33 0c0,-69.88 -23.41,-124.12 -69.37,-162.67 -46.38,-38.56 -108.8,-57.83 -187.27,-57.83 -79.77,0 -142.62,16.46 -188.56,49 -46.39,32.53 -69.37,74.3 -69.37,124.51 0,44.18 25.57,83.94 76.3,119.7 50.72,35.75 140.01,72.7 267.89,110.86 127.89,38.15 232.79,79.52 314.71,123.31 199.85,106.84 299.98,253.85 299.98,441.82 0,149.82 -61.13,267.51 -182.93,353.06 -121.82,85.56 -289.15,128.54 -501.56,128.54 -149.98,0 -285.67,-24.91 -407.04,-74.71 -121.38,-49.8 -212.85,-118.09 -274.4,-204.84 -61.56,-86.76 -91.91,-186.78 -91.91,-299.64l446.94 0c0,91.57 25.57,159.46 76.73,202.84 51.15,43.78 134.38,65.46 249.69,65.46 73.7,0 131.79,-14.85 174.71,-44.18 42.48,-29.32 64.15,-70.69 64.15,-124.12z"/>
  <path id="_4" class="fil0 str0" d="M6404.29 1236.06l0 583.21 -445.64 0 0 -1713.49 737.81 0c141.31,0 266.61,24.1 375.42,72.3 108.79,48.21 192.9,116.48 252.72,205.65 59.39,88.77 89.3,189.58 89.3,302.45 0,166.68 -64.59,300.04 -193.77,400.05 -129.18,100.01 -306.05,149.82 -531.46,149.82l-284.38 0zm0 -318.12l292.17 0c86.27,0 152.16,-20.09 197.24,-59.85 45.52,-40.17 68.06,-96.4 68.06,-169.51 0,-79.93 -23.4,-143.79 -69.79,-191.59 -46.38,-48.21 -110.1,-72.3 -190.31,-73.11l-297.36 0 0 494.05z"/>
  <path class="fil0 str1" d="M1637.15 1239.67c-6.08,119.3 -40.75,224.53 -104.47,316.11 -63.29,91.17 -152.6,161.87 -267.04,212.08 -114.88,50.2 -245.79,75.51 -393.18,75.51 -243.19,0 -434.36,-73.51 -573.95,-220.12 -140.02,-146.6 -209.8,-353.86 -209.8,-621.37l0 -84.75c0,-167.89 31.64,-314.9 94.92,-440.62 62.86,-126.12 153.89,-223.32 272.23,-292.01 118.34,-68.68 255.76,-102.83 411.39,-102.83 224.54,0 404.88,54.63 541,164.28 136.55,109.25 213.71,260.28 232.35,452.28l-444.34 0c-3.46,-104.43 -31.63,-179.54 -84.96,-225.34 -53.31,-45.39 -134.81,-68.28 -244.05,-68.28 -110.98,0 -192.04,38.56 -243.63,115.28 -51.58,77.12 -78.9,200.03 -81.5,369.12l0 121.3c0,182.76 24.71,313.7 74.56,392.42 49.42,78.32 134.82,117.69 255.76,117.69 102.31,0 180.76,-22.5 234.95,-67.08 54.18,-44.98 82.8,-116.08 86.27,-213.68l443.47 0z"/>
  <path id="_1_0" class="fil0 str1" d="M2534.91 1214.36l-241.02 0 0 604.91 -446.07 0 0 -1713.49 727.84 0c219.35,0 390.57,44.98 514.56,135.36 123.54,90.38 185.09,217.7 185.09,382.38 0,119.3 -26,218.1 -78.02,296.83 -52.02,78.32 -133.51,141.78 -244.49,190.39l386.24 690.86 0 17.67 -477.71 0 -326.43 -604.91zm-241.02 -318.12l281.77 0c84.53,0 148.25,-20.48 191.17,-61.85 42.92,-41.37 64.17,-99.2 64.17,-173.11 0,-73.91 -21.68,-132.15 -65.04,-174.33 -42.91,-42.17 -106.64,-63.06 -190.3,-63.06l-281.77 0 0 472.35z"/>
  <polygon id="_2_1" class="fil0 str1" points="4020.06,1819.26 3575.74,1819.26 3575.74,105.78 4020.06,105.78 "/>
  <path id="_3_2" class="fil0 str1" d="M5284.13 1364.18c0,-60.66 -23.4,-107.64 -69.35,-141.38 -46.39,-33.74 -127.46,-68.69 -243.2,-104.83 -116.17,-36.15 -210.67,-71.1 -284.38,-104.84 -239.71,-109.25 -359.36,-259.07 -359.36,-449.85 0,-94.8 29.48,-178.74 89.3,-251.44 59.83,-72.7 144.36,-128.93 253.6,-169.5 108.8,-40.56 231.91,-60.66 368.03,-60.66 133.09,0 252.3,22.1 357.64,65.87 105.34,43.79 187.27,106.45 245.79,187.58 58.52,81.14 87.56,173.93 87.56,277.95l-444.33 0c0,-69.88 -23.41,-124.12 -69.37,-162.67 -46.38,-38.56 -108.8,-57.83 -187.27,-57.83 -79.77,0 -142.62,16.46 -188.56,49 -46.39,32.53 -69.37,74.3 -69.37,124.51 0,44.18 25.57,83.94 76.3,119.7 50.72,35.75 140.01,72.7 267.89,110.86 127.89,38.15 232.79,79.52 314.71,123.31 199.85,106.84 299.98,253.85 299.98,441.82 0,149.82 -61.13,267.51 -182.93,353.06 -121.82,85.56 -289.15,128.54 -501.56,128.54 -149.98,0 -285.67,-24.91 -407.04,-74.71 -121.38,-49.8 -212.85,-118.09 -274.4,-204.84 -61.56,-86.76 -91.91,-186.78 -91.91,-299.64l446.94 0c0,91.57 25.57,159.46 76.73,202.84 51.15,43.78 134.38,65.46 249.69,65.46 73.7,0 131.79,-14.85 174.71,-44.18 42.48,-29.32 64.15,-70.69 64.15,-124.12z"/>
  <path id="_4_3" class="fil0 str1" d="M6404.29 1236.06l0 583.21 -445.64 0 0 -1713.49 737.81 0c141.31,0 266.61,24.1 375.42,72.3 108.79,48.21 192.9,116.48 252.72,205.65 59.39,88.77 89.3,189.58 89.3,302.45 0,166.68 -64.59,300.04 -193.77,400.05 -129.18,100.01 -306.05,149.82 -531.46,149.82l-284.38 0zm0 -318.12l292.17 0c86.27,0 152.16,-20.09 197.24,-59.85 45.52,-40.17 68.06,-96.4 68.06,-169.51 0,-79.93 -23.4,-143.79 -69.79,-191.59 -46.38,-48.21 -110.1,-72.3 -190.31,-73.11l-297.36 0 0 494.05z"/>
  <rect class="fil1" x="-0" y="-0" width="7499.04" height="1938.66"/>
 </g>
</svg>
